<svg width="106" height="106" viewBox="0 0 106 106" fill="none" xmlns="http://www.w3.org/2000/svg">
<path d="M105.74 22.8482C105.3 20.6217 104.306 18.5175 102.857 16.7484C102.563 16.377 102.255 16.0466 101.918 15.7114C99.34 13.1194 95.7534 11.6327 92.078 11.6327H13.9216C10.2052 11.6327 6.70988 13.0819 4.07955 15.7128C3.74664 16.0449 3.43796 16.3786 3.13238 16.7619C1.68938 18.5235 0.700387 20.6249 0.270383 22.8544C0.0906797 23.7299 0 24.6371 0 25.5549V80.4465C0 82.3562 0.387977 84.2157 1.1571 85.9836C1.8227 87.5535 2.8326 89.0419 4.07872 90.2874C4.39258 90.5998 4.70437 90.888 5.03728 91.1689C7.52869 93.2322 10.6834 94.3675 13.9216 94.3675H92.078C95.3371 94.3675 98.4887 93.2278 100.973 91.1461C101.306 90.8774 101.613 90.5952 101.921 90.2874C103.126 89.0841 104.083 87.7015 104.771 86.177L104.862 85.9596C105.617 84.2253 106 82.3717 106 80.4467V25.5549C106 24.6491 105.913 23.7359 105.74 22.8482ZM7.20945 20.5176C7.40634 20.2294 7.65767 19.9336 7.97836 19.6104C9.57023 18.0194 11.6813 17.1438 13.9214 17.1438H92.0778C94.3375 17.1438 96.4492 18.0208 98.0235 19.6135C98.2953 19.8882 98.5549 20.1932 98.7814 20.4979L99.3791 21.3012L57.6623 57.6592C56.3763 58.7867 54.7204 59.4072 52.9994 59.4072C51.2953 59.4072 49.6409 58.7882 48.3395 57.6607L6.66434 21.3116L7.20945 20.5176ZM5.53912 80.9312C5.51655 80.7817 5.51138 80.6157 5.51138 80.4465V26.6915L37.8849 54.9328L5.83807 82.874L5.53912 80.9312ZM96.2486 87.7481C94.9957 88.4711 93.5527 88.8545 92.078 88.8545H13.9216C12.4461 88.8545 11.0037 88.4711 9.75159 87.7481L8.44149 86.9887L41.5532 58.1329L45.1821 61.2893C47.3588 63.1791 50.1347 64.2209 52.9998 64.2209C55.8755 64.2209 58.6559 63.1791 60.8312 61.2893L64.4586 58.1315L97.5589 86.9904L96.2486 87.7481ZM100.487 80.4465C100.487 80.6128 100.484 80.7772 100.463 80.9235L100.176 82.8845L68.1158 54.9479L100.487 26.7052V80.4465Z" fill="#27374D"/>
</svg>
