<svg width="106" height="105" viewBox="0 0 106 105" fill="none" xmlns="http://www.w3.org/2000/svg">
<g clip-path="url(#clip0_71_3)">
<path fill-rule="evenodd" clip-rule="evenodd" d="M53 0C82.2719 0 106 24.0971 106 53.8279C106 77.6051 90.8314 97.7758 69.7851 104.9C67.098 105.43 66.144 103.749 66.144 102.316C66.144 100.542 66.2076 94.7457 66.2076 87.5427C66.2076 82.5237 64.5116 79.248 62.6089 77.5785C74.412 76.245 86.814 71.6928 86.814 51.0183C86.814 45.1383 84.7576 40.3401 81.355 36.5706C81.9062 35.2108 83.7241 29.7358 80.8356 22.3228C80.8356 22.3228 76.3942 20.8804 66.2765 27.8419C62.0418 26.6502 57.505 26.0505 53 26.0295C48.495 26.0505 43.9635 26.6502 39.7341 27.8419C29.6058 20.8804 25.1538 22.3228 25.1538 22.3228C22.2759 29.7358 24.0938 35.2108 24.6397 36.5706C21.253 40.3401 19.1807 45.1383 19.1807 51.0183C19.1807 71.6403 31.5562 76.2623 43.3275 77.6221C41.8117 78.9661 40.439 81.337 39.962 84.8177C36.941 86.1932 29.2666 88.5738 24.539 80.347C24.539 80.347 21.7353 75.1751 16.4141 74.7971C16.4141 74.7971 11.2466 74.7291 16.0537 78.0681C16.0537 78.0681 19.5252 79.7219 21.9367 85.9431C21.9367 85.9431 25.0478 95.5504 39.7924 92.2954C39.8189 96.7947 39.8666 101.035 39.8666 102.316C39.8666 103.739 38.8914 105.404 36.2467 104.905C15.1845 97.7914 0 77.6104 0 53.8279C0 24.0971 23.7334 0 53 0Z" fill="#27374D"/>
</g>
<defs>
<clipPath id="clip0_71_3">
<rect width="106" height="105" fill="white"/>
</clipPath>
</defs>
</svg>
