<svg width="104" height="105" viewBox="0 0 104 105" fill="none" xmlns="http://www.w3.org/2000/svg">
<path d="M28.166 35C31.7559 35 34.666 32.0619 34.666 28.4375C34.666 24.8131 31.7559 21.875 28.166 21.875C24.5762 21.875 21.666 24.8131 21.666 28.4375C21.666 32.0619 24.5762 35 28.166 35Z" fill="#27374D"/>
<path d="M21.666 43.75C21.666 41.3338 23.6061 39.375 25.9993 39.375H30.3327C32.7259 39.375 34.666 41.3337 34.666 43.75V78.75C34.666 81.1663 32.7259 83.125 30.3327 83.125H25.9993C23.6061 83.125 21.666 81.1663 21.666 78.75V43.75Z" fill="#27374D"/>
<path d="M47.6673 83.125H52.0007C54.394 83.125 56.334 81.1663 56.334 78.75V59.0625C56.334 52.5 69.334 48.125 69.334 56.875V78.7517C69.334 81.1681 71.274 83.125 73.6673 83.125H78.0007C80.394 83.125 82.334 81.1663 82.334 78.75V52.5C82.334 43.75 75.834 39.375 67.1673 39.375C58.5007 39.375 56.334 45.9375 56.334 45.9375V43.75C56.334 41.3337 54.394 39.375 52.0007 39.375H47.6673C45.274 39.375 43.334 41.3338 43.334 43.75V78.75C43.334 81.1663 45.274 83.125 47.6673 83.125Z" fill="#27374D"/>
<path fill-rule="evenodd" clip-rule="evenodd" d="M86.6673 4.375C93.8472 4.375 99.6673 10.2513 99.6673 17.5V87.5C99.6673 94.7489 93.8472 100.625 86.6673 100.625H17.334C10.1543 100.625 4.33398 94.7489 4.33398 87.5V17.5C4.33398 10.2513 10.1543 4.375 17.334 4.375H86.6673ZM86.6673 13.125C89.0606 13.125 91.0006 15.0838 91.0006 17.5V87.5C91.0006 89.9163 89.0606 91.875 86.6673 91.875H17.334C14.9408 91.875 13.0006 89.9163 13.0006 87.5V17.5C13.0006 15.0838 14.9408 13.125 17.334 13.125H86.6673Z" fill="#27374D"/>
</svg>
